<svg width="21" height="21" viewBox="0 0 21 21" fill="none" xmlns="http://www.w3.org/2000/svg">
<path d="M20.9225 7.618C20.8287 7.32974 20.6517 7.07568 20.4138 6.88783C20.1759 6.69998 19.8877 6.58673 19.5856 6.56237L14.0543 6.11612L11.9187 0.951432C11.8032 0.670011 11.6066 0.42929 11.354 0.259874C11.1013 0.0904583 10.804 0 10.4998 0C10.1956 0 9.89827 0.0904583 9.64562 0.259874C9.39296 0.42929 9.19639 0.670011 9.08089 0.951432L6.94714 6.11518L1.41308 6.56237C1.11043 6.58797 0.82207 6.70231 0.584119 6.89106C0.346168 7.07982 0.16921 7.3346 0.0754186 7.62348C-0.0183732 7.91237 -0.0248287 8.22251 0.056861 8.51504C0.138551 8.80758 0.304752 9.0695 0.534643 9.268L4.75339 12.9083L3.46808 18.3514C3.3962 18.6471 3.4138 18.9576 3.51865 19.2432C3.6235 19.5289 3.81087 19.777 4.05698 19.956C4.30309 20.135 4.59684 20.2369 4.90093 20.2486C5.20503 20.2604 5.50576 20.1815 5.76496 20.0221L10.4993 17.1083L15.2365 20.0221C15.4958 20.1796 15.7959 20.257 16.0991 20.2444C16.4022 20.2317 16.6949 20.1297 16.9401 19.951C17.1854 19.7724 17.3724 19.5252 17.4774 19.2406C17.5825 18.9559 17.601 18.6466 17.5306 18.3514L16.2406 12.9074L20.4593 9.26706C20.6911 9.06889 20.8588 8.8064 20.9412 8.51284C21.0237 8.21927 21.0172 7.90784 20.9225 7.618ZM19.4843 8.13081L14.9187 12.0683C14.8146 12.1581 14.7371 12.2747 14.6948 12.4055C14.6525 12.5362 14.6469 12.6761 14.6787 12.8099L16.0737 18.6974C16.0773 18.7055 16.0777 18.7147 16.0747 18.723C16.0717 18.7314 16.0657 18.7383 16.0578 18.7424C16.0409 18.7555 16.0362 18.7527 16.0221 18.7424L10.8921 15.5877C10.774 15.515 10.638 15.4766 10.4993 15.4766C10.3606 15.4766 10.2247 15.515 10.1065 15.5877L4.97652 18.7442C4.96246 18.7527 4.95871 18.7555 4.94089 18.7442C4.93298 18.7402 4.92692 18.7333 4.92395 18.7249C4.92099 18.7166 4.92135 18.7074 4.92496 18.6992L6.31996 12.8117C6.35175 12.678 6.34618 12.5381 6.30385 12.4073C6.26153 12.2766 6.18407 12.1599 6.07996 12.0702L1.51433 8.13268C1.50308 8.12331 1.49277 8.11487 1.50214 8.08581C1.51152 8.05675 1.51902 8.0605 1.53308 8.05862L7.52558 7.57487C7.66303 7.56308 7.79456 7.51361 7.90571 7.4319C8.01686 7.35019 8.10332 7.23941 8.15558 7.11175L10.4637 1.52331C10.4712 1.50737 10.474 1.49987 10.4965 1.49987C10.519 1.49987 10.5218 1.50737 10.5293 1.52331L12.8431 7.11175C12.8958 7.23946 12.9828 7.35012 13.0945 7.43152C13.2062 7.51291 13.3382 7.56187 13.4759 7.573L19.4684 8.05675C19.4825 8.05675 19.4909 8.05675 19.4993 8.08393C19.5078 8.11112 19.4993 8.12143 19.4843 8.13081Z" fill="#999999"/>
</svg>
