<svg width="24" height="24" viewBox="0 0 24 24" fill="none" xmlns="http://www.w3.org/2000/svg">
<path d="M16.2105 3C14.2316 3 12.7895 4.24602 12 5C11.3474 4.38029 9.76842 3 7.78947 3C4.58947 3 2 5.86013 2 9C2 14.9148 8.13245 19.394 11.3776 20.7632C11.7763 20.9315 12.2237 20.9315 12.6224 20.7632C15.8675 19.394 22 14.9148 22 9C22 5.86013 19.4105 3 16.2105 3Z" fill="#C8E3FE"/>
<path fill-rule="evenodd" clip-rule="evenodd" d="M13 9C13 8.44772 12.5523 8 12 8C11.4477 8 11 8.44772 11 9V11H9C8.44772 11 8 11.4477 8 12C8 12.5523 8.44772 13 9 13H11V15C11 15.5523 11.4477 16 12 16C12.5523 16 13 15.5523 13 15V13H15C15.5523 13 16 12.5523 16 12C16 11.4477 15.5523 11 15 11H13V9Z" fill="#C8E3FE"/>
<path d="M11.3114 5.72516C11.6981 6.09238 12.305 6.09151 12.6907 5.72318C13.4645 4.98413 14.6543 4 16.2105 4C18.8064 4 21 6.35907 21 9C21 11.6019 19.648 13.9655 17.8049 15.8956C15.9647 17.8227 13.7356 19.2082 12.2337 19.8419C12.0836 19.9052 11.9165 19.9052 11.7663 19.8419C10.2644 19.2082 8.03533 17.8227 6.19509 15.8956C4.352 13.9655 3 11.6019 3 9C3 6.35907 5.19364 4 7.78947 4C9.33915 4 10.6616 5.10811 11.3114 5.72516Z" stroke="#7396F5" stroke-width="2" stroke-linejoin="round"/>
<path fill-rule="evenodd" clip-rule="evenodd" d="M13 9C13 8.44772 12.5523 8 12 8C11.4477 8 11 8.44772 11 9V11H9C8.44772 11 8 11.4477 8 12C8 12.5523 8.44772 13 9 13H11V15C11 15.5523 11.4477 16 12 16C12.5523 16 13 15.5523 13 15V13H15C15.5523 13 16 12.5523 16 12C16 11.4477 15.5523 11 15 11H13V9Z" fill="#426AF0"/>
</svg>
