<svg width="48" height="48" viewBox="0 0 48 48" fill="none" xmlns="http://www.w3.org/2000/svg">
<g clip-path="url(#clip0_111_15553)">
<path d="M22.7139 41.9928C22.7139 41.9923 22.7139 41.9918 22.7139 41.9913C18.8606 41.6413 15.1933 40.1086 12.2557 37.5789C9.46754 35.1781 7.47133 31.9934 6.56135 28.4317C6.48544 28.1346 6.71468 27.8505 7.02116 27.8602C11.9231 28.0155 15.1396 30.1077 16.1469 34.1367C15.743 32.0023 16.1801 30.4858 17.4508 29.5945C17.6074 29.4847 17.8167 29.4975 17.9688 29.6135C21.1196 32.0159 22.6999 35.0328 22.7139 41.9913C22.7144 41.9914 22.7149 41.9914 22.7154 41.9915C22.7166 41.9916 22.7172 41.993 22.7163 41.9939C22.7154 41.9948 22.7139 41.9941 22.7139 41.9928Z" fill="#FFA6B7"/>
<path d="M15.3445 13.2427C18.8502 16.9525 20.8775 21.8233 21.4308 27.8598C20.4603 24.3767 16.9953 21.5512 11.036 19.3834C9.93851 18.948 9.0995 18.0364 8.75936 16.9026C8.41921 15.7688 8.61876 14.5443 9.29904 13.5783C9.97933 12.6123 11.0633 12.0091 12.2424 11.9456C13.4216 11.8821 14.5645 12.3583 15.3491 13.2472L15.3445 13.2427Z" fill="#426AF0"/>
<path d="M23.9974 26.5719C25.2809 18.8574 29.1404 15.0025 29.1404 11.143C29.1404 9.77786 28.6007 8.47171 27.6347 7.5057C26.6687 6.53969 25.3626 6 23.9974 6C22.6323 6 21.3262 6.53969 20.3602 7.5057C19.3942 8.47171 18.8545 9.77786 18.8545 11.143C18.8545 14.9979 22.7094 18.8574 23.9974 26.5719Z" fill="#426AF0"/>
<path d="M30.1401 29.3655C26.9997 31.8329 25.3831 34.8288 25.2901 41.4022C25.2861 41.6838 25.5275 41.9079 25.8074 41.8759C29.4668 41.4579 32.9385 39.9682 35.7487 37.5607C38.541 35.1727 40.5374 31.993 41.4436 28.4357C41.5192 28.1387 41.29 27.8549 40.9837 27.8646C36.0815 28.0198 32.8647 30.1119 31.8575 34.1411C32.2535 32.0259 31.8706 30.4353 30.7086 29.3765C30.5495 29.2314 30.3094 29.2325 30.1401 29.3655Z" fill="#FFA6B7"/>
<path d="M32.6554 13.2429C29.1496 16.9527 27.1224 21.8236 26.5691 27.86C28.3968 24.3769 31.8617 21.5515 36.9638 19.3836C38.0614 18.9482 38.9004 18.0367 39.2405 16.9028C39.5807 15.769 39.3811 14.5445 38.7008 13.5785C38.0206 12.6125 36.9366 12.0093 35.7575 11.9458C34.5783 11.8823 33.4354 12.3585 32.6508 13.2474L32.6554 13.2429Z" fill="#426AF0"/>
<path d="M39.4177 26.5991C40.2613 26.5991 41.0549 26.1909 41.5402 25.497C42.021 24.8031 42.1343 23.9142 41.835 23.1251C41.6899 22.7351 41.4495 22.3859 41.1366 22.1092C40.996 21.9822 40.8509 21.8734 40.6785 21.7963C40.4654 21.6965 40.2477 21.6512 40.0164 21.6239C39.2318 21.5287 38.2975 21.7101 37.5628 21.9187C32.9732 23.175 29.7395 25.5877 27.8574 29.1479C30.4289 26.776 34.2793 25.9279 39.4177 26.6036V26.5991Z" fill="#426AF0"/>
<path d="M8.58233 26.5991C7.73878 26.5991 6.94511 26.1909 6.45984 25.497C5.9791 24.8031 5.86573 23.9142 6.16505 23.1251C6.31018 22.7351 6.55054 22.3859 6.86347 22.1092C7.00407 21.9822 7.14919 21.8734 7.32153 21.7963C7.53469 21.6965 7.75238 21.6512 7.98368 21.6239C8.76827 21.5287 9.70253 21.7101 10.4372 21.9187C15.0269 23.175 18.2605 25.5877 20.1426 29.1479C17.5712 26.776 13.7208 25.9279 8.58233 26.6036V26.5991Z" fill="#426AF0"/>
</g>
<defs>
<clipPath id="clip0_111_15553">
<rect width="36" height="36" fill="white" transform="translate(6 6)"/>
</clipPath>
</defs>
</svg>
