<svg width="24" height="24" viewBox="0 0 24 24" fill="none" xmlns="http://www.w3.org/2000/svg">
<path d="M19.6647 17.303C19.3774 17.9666 19.0374 18.5775 18.6434 19.1391C18.1064 19.9048 17.6667 20.4347 17.3279 20.729C16.8026 21.2121 16.2398 21.4595 15.6371 21.4736C15.2045 21.4736 14.6827 21.3505 14.0753 21.1007C13.466 20.8522 12.906 20.729 12.394 20.729C11.857 20.729 11.281 20.8522 10.665 21.1007C10.048 21.3505 9.55099 21.4806 9.17098 21.4935C8.59305 21.5181 8.017 21.2637 7.442 20.729C7.07501 20.4089 6.61598 19.8602 6.06607 19.0828C5.47607 18.2527 4.991 17.2901 4.61099 16.1926C4.20402 15.0072 4 13.8593 4 12.748C4 11.4751 4.27507 10.3771 4.82603 9.45706C5.25904 8.71803 5.83509 8.13506 6.55606 7.70709C7.27703 7.27913 8.05605 7.06104 8.89497 7.04709C9.35401 7.04709 9.95597 7.18908 10.704 7.46814C11.45 7.74813 11.9289 7.89012 12.1389 7.89012C12.2959 7.89012 12.828 7.72409 13.73 7.3931C14.583 7.08613 15.3029 6.95903 15.8927 7.0091C17.4908 7.13808 18.6915 7.76806 19.49 8.90305C18.0607 9.76906 17.3537 10.982 17.3677 12.538C17.3806 13.7501 17.8203 14.7586 18.6845 15.5595C19.0761 15.9312 19.5134 16.2184 20 16.4224C19.8945 16.7285 19.7831 17.0216 19.6647 17.303ZM15.9994 2.88001C15.9994 3.82998 15.6524 4.71697 14.9606 5.53796C14.1258 6.51395 13.116 7.07793 12.021 6.98893C12.007 6.87497 11.9989 6.75502 11.9989 6.62898C11.9989 5.717 12.396 4.74101 13.101 3.943C13.453 3.53896 13.9006 3.203 14.4435 2.935C14.9852 2.671 15.4976 2.525 15.9795 2.5C15.9936 2.627 15.9994 2.754 15.9994 2.88V2.88001Z" fill="#F8F8FA"/>
</svg>
