<svg width="25" height="24" viewBox="0 0 25 24" fill="none" xmlns="http://www.w3.org/2000/svg">
<circle cx="12.5" cy="12" r="10" fill="#7396F5"/>
<path fill-rule="evenodd" clip-rule="evenodd" d="M8.32492 2.91373C10.3973 1.96128 12.7329 1.74584 14.9445 2.30315C17.1561 2.86045 19.1108 4.15702 20.4843 5.9778C21.8578 7.79859 22.5676 10.0342 22.4961 12.3138C22.4245 14.5934 21.5758 16.7801 20.0908 18.5111C19.7312 18.9303 19.0999 18.9786 18.6807 18.619C18.2615 18.2594 18.2133 17.6281 18.5728 17.2089C19.7609 15.8241 20.4398 14.0747 20.497 12.251C20.5543 10.4273 19.9864 8.63887 18.8876 7.18224C17.7888 5.72562 16.2251 4.68836 14.4558 4.24252C12.6865 3.79667 10.818 3.96902 9.16013 4.73099C7.50226 5.49295 6.15466 6.79874 5.34084 8.43178C4.52702 10.0648 4.29588 11.927 4.68576 13.7094C5.07564 15.4919 6.06311 17.0875 7.48439 18.2317C8.64406 19.1652 10.0357 19.7525 11.4998 19.9371V17.9162C10.4729 17.7428 9.50272 17.3039 8.68925 16.6354C7.61542 15.7528 6.88132 14.5248 6.61233 13.1611C6.34335 11.7974 6.55617 10.3826 7.21445 9.15844C7.87273 7.93424 8.93562 6.97656 10.2216 6.44899C11.5075 5.92142 12.9368 5.85669 14.2651 6.26585C15.5935 6.67502 16.7386 7.5327 17.5049 8.69238C18.2711 9.85207 18.611 11.2418 18.4663 12.6242C18.3217 14.0067 17.7016 15.296 16.712 16.272C16.3188 16.6598 15.6856 16.6554 15.2978 16.2622C14.91 15.869 14.9144 15.2358 15.3076 14.848C15.9674 14.1973 16.3808 13.3378 16.4772 12.4162C16.5736 11.4945 16.347 10.568 15.8362 9.79492C15.3254 9.0218 14.562 8.45001 13.6764 8.17724C12.7908 7.90446 11.838 7.94761 10.9807 8.29933C10.1234 8.65104 9.41479 9.28949 8.97593 10.1056C8.53708 10.9218 8.3952 11.865 8.57452 12.7741C8.75385 13.6832 9.24325 14.5019 9.95914 15.0902C10.4126 15.463 10.9392 15.7286 11.4998 15.8732V13.7321C11.3497 13.6454 11.2103 13.5389 11.0856 13.4142C10.7105 13.0391 10.4998 12.5304 10.4998 12C10.4998 11.4696 10.7105 10.9609 11.0856 10.5858C11.4607 10.2107 11.9694 10 12.4998 10C13.0303 10 13.539 10.2107 13.914 10.5858C14.2891 10.9609 14.4998 11.4696 14.4998 12C14.4998 12.5304 14.2891 13.0391 13.914 13.4142C13.7894 13.5389 13.6499 13.6454 13.4998 13.7321V20.995C13.4998 20.9967 13.4998 20.9984 13.4998 21.0001C13.4998 21.5524 13.052 22 12.4998 22C12.4998 22 12.4997 22 12.4997 22C10.219 21.9997 8.00684 21.2198 6.23024 19.7896C4.45364 18.3594 3.2193 16.3649 2.73195 14.1368C2.2446 11.9087 2.53352 9.58103 3.5508 7.53973C4.56807 5.49842 6.25257 3.86618 8.32492 2.91373Z" fill="#C8E3FE"/>
</svg>
