<svg width="128" height="128" viewBox="0 0 128 128" fill="none" xmlns="http://www.w3.org/2000/svg">
<g clip-path="url(#clip0_16_595)">
<path d="M60.5702 111.981C60.5702 111.98 60.5702 111.978 60.5702 111.977C50.2948 111.044 40.5154 106.957 32.6816 100.211C25.2466 93.8084 19.9234 85.3161 17.4968 75.8181C17.2944 75.0259 17.9057 74.2682 18.7229 74.2941C31.7947 74.7083 40.3722 80.2874 43.0582 91.0314C41.9811 85.3398 43.1468 81.2957 46.5352 78.919C46.9529 78.626 47.5109 78.6603 47.9167 78.9697C56.3188 85.376 60.5329 93.4211 60.5702 111.977C60.5716 111.977 60.573 111.977 60.5743 111.978C60.5775 111.978 60.5789 111.982 60.5767 111.984C60.5743 111.986 60.5702 111.984 60.5702 111.981Z" fill="#FFB5C3"/>
<path d="M40.9186 35.314C50.2672 45.2069 55.6732 58.1958 57.1487 74.2929C54.5606 65.0047 45.3208 57.4702 29.4293 51.6893C26.5026 50.5282 24.2652 48.0973 23.3582 45.0738C22.4511 42.0503 22.9833 38.785 24.7973 36.2089C26.6114 33.6329 29.5019 32.0244 32.6463 31.8551C35.7908 31.6858 38.8384 32.9557 40.9307 35.3261L40.9186 35.314Z" fill="#426AF0"/>
<path d="M63.9932 70.8584C67.4158 50.2865 77.7078 40.0066 77.7078 29.7146C77.7078 26.0743 76.2686 22.5912 73.6926 20.0152C71.1166 17.4392 67.6335 16 63.9932 16C60.353 16 56.8699 17.4392 54.2939 20.0152C51.7179 22.5912 50.2787 26.0743 50.2787 29.7146C50.2787 39.9945 60.5585 50.2865 63.9932 70.8584Z" fill="#426AF0"/>
<path d="M80.3732 78.3083C71.999 84.8881 67.6879 92.8772 67.4399 110.406C67.4293 111.157 68.0731 111.755 68.8194 111.669C78.578 110.555 87.8357 106.582 95.3295 100.162C102.776 93.7943 108.099 85.3149 110.516 75.8288C110.718 75.0368 110.106 74.2799 109.29 74.3058C96.2171 74.7197 87.639 80.2988 84.9529 91.0432C86.0091 85.4027 84.9879 81.161 81.8894 78.3375C81.465 77.9508 80.8247 77.9536 80.3732 78.3083Z" fill="#FFB5C3"/>
<path d="M87.0807 35.3143C77.7321 45.2072 72.3261 58.1961 70.8506 74.2932C75.7245 65.0051 84.9643 57.4705 98.57 51.6896C101.497 50.5285 103.734 48.0976 104.641 45.0741C105.548 42.0506 105.016 38.7853 103.202 36.2092C101.388 33.6332 98.4974 32.0247 95.353 31.8554C92.2086 31.6861 89.1609 32.956 87.0686 35.3264L87.0807 35.3143Z" fill="#426AF0"/>
<path d="M105.114 70.9309C107.363 70.9309 109.48 69.8425 110.774 67.9921C112.056 66.1417 112.358 63.7713 111.56 61.6669C111.173 60.6268 110.532 59.6956 109.697 58.9579C109.322 58.6192 108.935 58.329 108.476 58.1234C107.907 57.8573 107.327 57.7364 106.71 57.6638C104.618 57.4098 102.127 57.8936 100.167 58.4499C87.9282 61.7999 79.3052 68.234 74.2863 77.7277C81.1435 71.4026 91.4113 69.141 105.114 70.943V70.9309Z" fill="#426AF0"/>
<path d="M22.8862 70.9309C20.6367 70.9309 18.5203 69.8425 17.2262 67.9921C15.9443 66.1417 15.6419 63.7713 16.4401 61.6669C16.8271 60.6269 17.4681 59.6956 18.3026 58.9579C18.6775 58.6193 19.0645 58.329 19.5241 58.1234C20.0925 57.8573 20.673 57.7364 21.2898 57.6638C23.3821 57.4099 25.8734 57.8936 27.8326 58.4499C40.0717 61.8 48.6947 68.234 53.7137 77.7278C46.8564 71.4026 36.5887 69.141 22.8862 70.943V70.9309Z" fill="#426AF0"/>
</g>
<defs>
<clipPath id="clip0_16_595">
<rect width="96" height="96" fill="white" transform="translate(16 16)"/>
</clipPath>
</defs>
</svg>
